<svg xmlns="http://www.w3.org/2000/svg" viewBox="0 0 536.82 300.78"><defs><style>.cls-1{fill:#fff;}</style></defs><g id="Calque_2" data-name="Calque 2"><g id="Layer_1" data-name="Layer 1"><path class="cls-1" d="M155.67,292.52c-10.08,0-18-8.17-18-18.52s7.93-18.46,18-18.46a19.34,19.34,0,0,1,14.05,6.68l5-6.45a27.29,27.29,0,0,0-19.16-8.1A26.08,26.08,0,0,0,129,274.07c0,15.08,11.46,26.7,26.23,26.7a28.11,28.11,0,0,0,19.53-8.62l-5.05-5.85A20.4,20.4,0,0,1,155.67,292.52Z"/><path class="cls-1" d="M207.82,247.89,185.55,300.4h8.86l4.83-11.85h25.43l4.83,11.85h9.08l-22-52.51Zm-5.41,32.78,9.51-23.33,9.51,23.33Z"/><polygon class="cls-1" points="281.07 282.77 264.43 247.89 254.34 247.89 254.34 300.4 262.34 300.4 262.34 261.17 278.26 294.92 283.81 294.92 299.73 261.17 299.81 300.4 307.65 300.4 307.65 247.89 297.64 247.89 281.07 282.77"/><path class="cls-1" d="M350.14,247.89H330V300.4h8.5V284.58h11.6c12.68,0,20-6.91,20-18.76C370.1,254.42,362.82,247.89,350.14,247.89Zm-.36,28.74H338.54V255.85h11.24c7.78,0,12.18,3.29,12.18,10.19C362,273.17,357.56,276.63,349.78,276.63Z"/><path class="cls-1" d="M422,278.65c0,8.93-5.11,14.17-13.33,14.17s-13.55-5.32-13.55-14.17V247.89h-8.5v30.76c0,13.72,8.36,22.13,22,22.13s21.9-8.41,21.9-22.13V247.89H422Z"/><path class="cls-1" d="M459.4,261.32c0-3.53,3.25-5.48,8.22-5.48,3.81,0,9.29,1.43,14.77,4.88l3.53-7.8a31.88,31.88,0,0,0-17.65-5.4c-10.95,0-18.37,5.62-18.37,14.62,0,18.68,27.23,12.16,27.23,23.86,0,4.05-3.53,6.38-9.44,6.38-5.4,0-11.89-2.71-17.08-7.66l-3.67,7.66a30.35,30.35,0,0,0,20.6,8.32c11.1,0,19-5.78,19-15.15C486.64,266.65,459.4,272.8,459.4,261.32Z"/><path class="cls-1" d="M341.52,215.11a65.86,65.86,0,1,0-66.17-65.85A66,66,0,0,0,341.52,215.11Zm0-100.36a34.5,34.5,0,1,1-34.66,34.5A34.58,34.58,0,0,1,341.51,114.75Z"/><path class="cls-1" d="M129.55,215.11h31.5v-64c0-19.44,15.52-35.2,34.66-35.2s34.66,15.76,34.66,35.2v64h31.51v-64c0-37.12-29.63-67.21-66.17-67.21S129.55,114,129.55,151.11Z"/><path class="cls-1" d="M58.12,152a33.79,33.79,0,0,0-2.34-12.42L34.44,83.9H.54l37.74,98.41C50,177.53,58.12,165.85,58.12,152Z"/><polygon class="cls-1" points="486.49 215.11 536.82 83.9 502.91 83.9 452.58 215.11 486.49 215.11"/><path class="cls-1" d="M459.84,152a33.64,33.64,0,0,0-2.34-12.43L436.18,83.9H402.26L440,182.3C451.72,177.53,459.84,165.85,459.84,152Z"/><polygon class="cls-1" points="101.17 83.9 18.11 300.44 52.02 300.44 135.08 83.9 101.17 83.9"/><path class="cls-1" d="M46.23.86V51.27H36.65L11.52,20.67v30.6H0V.86H9.65L34.71,31.47V.86Z"/><path class="cls-1" d="M91.37,40.47H68L63.5,51.27h-12L74,.86H85.54l22.54,50.41H95.83ZM87.7,31.61l-8-19.3-8,19.3Z"/><path class="cls-1" d="M159.55.86V51.27H150l-25.13-30.6v30.6H113.33V.86H123l25,30.61V.86Z"/><path class="cls-1" d="M181.94,10.37H165.81V.86h43.93v9.51H193.61v40.9H181.94Z"/><path class="cls-1" d="M255,41.91v9.36H216V.86h38.09v9.37h-26.5V21.17H251v9.07h-23.4V41.91Z"/><path class="cls-1" d="M260.35,46.3l4-8.78a29.71,29.71,0,0,0,16.63,5.25c6.92,0,9.73-2.3,9.73-5.4,0-9.43-29.31-2.95-29.31-21.67,0-8.57,6.91-15.7,21.24-15.7,6.34,0,12.82,1.51,17.5,4.46l-3.6,8.86a28.53,28.53,0,0,0-14-4c-6.91,0-9.58,2.59-9.58,5.76,0,9.29,29.31,2.88,29.31,21.39,0,8.42-7,15.62-21.39,15.62C272.88,52.13,264.81,49.76,260.35,46.3Z"/></g></g></svg>